<?xml version="1.0" standalone="no"?>
<!DOCTYPE svg PUBLIC "-//W3C//DTD SVG 20010904//EN"
 "http://www.w3.org/TR/2001/REC-SVG-20010904/DTD/svg10.dtd">
<svg version="1.0" xmlns="http://www.w3.org/2000/svg"
 width="1280.000000pt" height="1122.000000pt" viewBox="0 0 1280.000000 1122.000000"
 preserveAspectRatio="xMidYMid meet">
<g transform="translate(0.000000,1122.000000) scale(0.100000,-0.100000)"
fill="#000000" stroke="none">
<path d="M1619 11180 c-58 -10 -96 -30 -136 -72 -61 -63 -63 -76 -63 -410 0
-283 2 -306 21 -348 11 -25 30 -56 42 -69 32 -35 116 -71 164 -71 98 0 208
-40 277 -100 124 -109 163 -320 88 -473 -38 -77 -111 -148 -190 -185 -51 -24
-69 -27 -167 -27 -104 0 -114 2 -176 32 -81 40 -140 102 -182 190 -28 61 -31
77 -37 212 -7 160 -14 183 -72 238 -66 63 -64 63 -530 63 -267 0 -437 -4 -461
-11 -51 -14 -115 -73 -141 -129 l-21 -45 -3 -2095 c-2 -1152 0 -2132 3 -2177
9 -109 45 -172 125 -217 l55 -31 420 0 c468 0 454 -2 535 71 65 59 73 82 65
189 -13 171 25 286 125 378 83 77 147 101 270 101 75 0 107 -5 152 -23 81 -31
159 -106 200 -189 31 -64 33 -72 33 -182 0 -107 -2 -119 -29 -172 -66 -130
-177 -202 -335 -218 -55 -6 -107 -18 -130 -30 -50 -25 -104 -89 -119 -139 -15
-49 -17 -809 -2 -861 22 -81 107 -155 188 -165 188 -23 229 -38 312 -111 31
-29 61 -70 82 -112 32 -64 33 -72 33 -182 0 -106 -2 -120 -28 -172 -38 -77
-107 -144 -187 -182 -60 -29 -73 -31 -170 -31 -93 0 -111 3 -163 27 -78 37
-129 78 -166 136 -47 73 -61 125 -70 256 -7 104 -12 130 -38 181 -37 75 -74
101 -156 110 -34 4 -213 5 -397 3 -296 -3 -340 -5 -375 -21 -53 -24 -103 -72
-126 -122 -18 -38 -19 -83 -19 -898 0 -946 -3 -896 63 -965 18 -19 50 -43 72
-55 39 -22 46 -22 545 -22 l505 0 125 63 c112 57 133 64 200 69 169 12 317
-74 388 -225 24 -51 27 -69 27 -167 0 -105 -2 -114 -33 -177 -40 -83 -119
-158 -200 -189 -83 -34 -232 -33 -317 0 -80 32 -149 103 -200 206 -33 66 -48
85 -85 107 -73 45 -128 50 -548 46 -421 -3 -419 -3 -490 -63 -18 -15 -43 -46
-55 -69 l-22 -41 0 -666 0 -666 30 -49 c19 -30 49 -60 79 -79 l49 -30 6171 -3
c5704 -2 6174 -1 6215 14 58 22 107 67 137 125 l24 48 0 5331 0 5330 -29 63
c-32 70 -67 108 -126 134 -38 17 -262 18 -5510 19 -3008 1 -5491 -2 -5516 -6z
m10689 -5527 l-3 -5078 -5865 0 -5865 0 0 375 0 375 187 3 c174 2 188 1 197
-16 40 -74 173 -194 284 -256 220 -123 504 -140 734 -44 234 97 416 299 495
548 20 66 23 95 23 235 0 140 -3 169 -23 235 -97 307 -344 533 -651 596 -64
12 -113 15 -200 11 -137 -6 -226 -29 -357 -93 l-92 -44 -285 0 c-157 0 -292 3
-301 6 -14 6 -16 65 -16 574 0 509 2 568 16 574 22 9 197 7 210 -2 5 -4 20
-47 32 -96 95 -377 443 -647 836 -646 240 1 494 125 653 320 69 85 137 224
163 330 39 165 21 376 -44 523 -88 199 -272 379 -472 462 -38 16 -75 33 -82
38 -20 15 -13 307 8 317 8 4 59 29 112 54 206 98 369 271 447 475 39 101 51
173 51 300 0 378 -242 694 -617 807 -119 36 -315 39 -438 6 -308 -83 -543
-326 -616 -639 -11 -49 -28 -94 -37 -100 -16 -14 -158 -18 -200 -7 l-22 6 2
1882 3 1881 115 0 114 0 22 -86 c77 -300 303 -536 594 -619 118 -34 303 -39
423 -11 295 68 533 290 627 586 34 108 40 312 11 425 -41 162 -123 301 -247
421 -101 96 -175 142 -336 207 l-28 12 0 108 c0 60 3 112 7 115 3 4 2352 7
5220 7 l5213 0 -2 -5077z"/>
<path d="M11547 9254 c-28 -9 -179 -103 -370 -231 -177 -119 -615 -414 -974
-655 -359 -241 -657 -438 -662 -438 -6 0 -13 12 -17 28 -39 181 -60 227 -121
270 -65 44 -138 53 -231 26 -120 -35 -192 -120 -192 -227 0 -42 118 -472 160
-581 20 -53 51 -86 120 -126 54 -31 79 -40 116 -40 25 0 74 -5 108 -11 l61
-12 1115 756 c613 416 1136 776 1162 800 80 75 97 183 47 297 -55 125 -192
186 -322 144z"/>
<path d="M1518 8520 c-195 -33 -393 -149 -517 -302 -265 -327 -250 -800 36
-1108 114 -123 265 -212 428 -251 76 -18 110 -20 220 -16 145 5 214 20 322 72
100 47 177 102 254 182 102 105 165 210 209 348 31 97 39 299 16 408 -68 332
-339 599 -674 663 -79 15 -217 17 -294 4z m230 -450 c114 -27 221 -113 270
-217 23 -51 26 -71 27 -168 0 -99 -3 -116 -27 -167 -37 -79 -108 -152 -185
-190 -53 -26 -80 -33 -147 -36 -207 -11 -360 99 -412 293 -35 131 5 285 101
380 93 93 242 135 373 105z"/>
<path d="M3298 7891 c-64 -13 -128 -60 -161 -120 -55 -98 -38 -209 45 -288 70
-68 -66 -63 1768 -63 l1661 0 42 21 c84 42 126 104 134 199 9 99 -50 195 -146
239 -33 15 -185 16 -1671 17 -899 1 -1652 -1 -1672 -5z"/>
<path d="M7497 7889 c-56 -13 -89 -33 -129 -77 -46 -51 -61 -99 -56 -178 5
-75 37 -130 107 -179 l43 -30 476 -3 c330 -2 489 0 515 8 51 15 116 75 140
130 64 144 -32 312 -189 334 -71 9 -863 5 -907 -5z"/>
<path d="M11562 7159 c-49 -12 -88 -37 -1224 -800 -432 -291 -791 -529 -797
-529 -6 0 -13 10 -16 23 -2 12 -11 52 -20 90 -26 118 -62 168 -145 206 -52 24
-105 26 -175 7 -131 -35 -205 -117 -205 -231 0 -61 147 -566 180 -620 24 -39
63 -71 128 -103 33 -17 61 -22 119 -22 42 0 91 -5 108 -11 31 -12 46 -1 1156
751 626 424 1141 780 1162 802 89 97 84 252 -13 362 -61 69 -160 98 -258 75z"/>
<path d="M3245 5911 c-58 -26 -111 -90 -130 -156 -32 -108 18 -222 120 -274
l49 -26 1656 0 c1573 0 1657 1 1702 18 56 22 109 77 133 141 39 101 -4 222
-99 281 l-49 30 -1671 2 c-1600 3 -1673 2 -1711 -16z"/>
<path d="M7460 5917 c-48 -15 -126 -95 -139 -143 -35 -125 12 -237 124 -297
39 -21 51 -22 470 -25 237 -2 453 -1 481 3 32 4 72 19 104 38 161 97 146 339
-25 418 -37 17 -72 19 -510 18 -314 -1 -482 -5 -505 -12z"/>
<path d="M11522 5070 c-24 -11 -474 -309 -1000 -662 -526 -353 -966 -642 -976
-642 -17 -1 -22 12 -37 86 -21 103 -36 135 -86 183 -53 51 -126 71 -207 55
-83 -16 -117 -32 -164 -75 -53 -47 -75 -105 -70 -181 4 -62 137 -523 168 -584
25 -48 64 -82 136 -119 57 -29 67 -31 126 -25 50 5 71 3 96 -10 l32 -17 1123
762 c617 418 1141 780 1164 803 40 41 73 118 73 170 0 43 -33 133 -65 177 -66
92 -207 127 -313 79z"/>
<path d="M7481 3988 c-99 -28 -171 -122 -171 -224 0 -102 47 -180 134 -220
l51 -24 459 0 c323 0 470 3 498 12 53 16 122 78 143 130 39 96 12 216 -63 278
-70 58 -91 60 -576 59 -255 0 -455 -5 -475 -11z"/>
<path d="M3280 3961 c-108 -33 -173 -119 -173 -231 0 -92 47 -170 127 -213
l41 -22 1643 -3 1644 -2 59 26 c69 31 140 102 159 158 15 45 8 122 -14 165 -9
17 -32 46 -52 65 -73 71 52 66 -1768 65 -903 0 -1652 -4 -1666 -8z"/>
</g>
</svg>
